Bitcount-VariationPixels.ufo
<glyph name="Pix01@00_i" format="2">
  <advance width="100"/>
  <outline>
    <contour>
      <point x="49" y="40" type="line"/>
      <point x="50" y="50" type="line"/>
      <point x="50" y="50" type="line"/>
      <point x="50.0" y="50.0"/>
      <point x="50.0" y="50.0"/>
      <point x="50" y="50" type="curve"/>
      <point x="50" y="50" type="line"/>
      <point x="40" y="50" type="line"/>
      <point x="40" y="50" type="line"/>
      <point x="40" y="50" type="line"/>
      <point x="40.0" y="44.64"/>
      <point x="43.64" y="40.0"/>
      <point x="49" y="40" type="curve"/>
      <point x="49" y="40" type="line"/>
    </contour>
    <contour>
      <point x="49" y="40" type="line"/>
      <point x="49" y="40" type="line"/>
      <point x="49" y="40" type="line"/>
      <point x="55.7" y="40.0"/>
      <point x="60.0" y="44.64"/>
      <point x="60" y="50" type="curve"/>
      <point x="60" y="50" type="line"/>
      <point x="60" y="50" type="line"/>
      <point x="50" y="50" type="line"/>
      <point x="50" y="50" type="line"/>
      <point x="50.0" y="50.0"/>
      <point x="50.0" y="50.0"/>
      <point x="50" y="50" type="curve"/>
      <point x="50" y="50" type="line"/>
    </contour>
    <contour>
      <point x="51" y="60" type="line"/>
      <point x="50" y="50" type="line"/>
      <point x="50" y="50" type="line"/>
      <point x="50.0" y="50.0"/>
      <point x="50.0" y="50.0"/>
      <point x="50" y="50" type="curve"/>
      <point x="50" y="50" type="line"/>
      <point x="60" y="50" type="line"/>
      <point x="60" y="50" type="line"/>
      <point x="60" y="50" type="line"/>
      <point x="60.0" y="55.36"/>
      <point x="56.36" y="60.0"/>
      <point x="51" y="60" type="curve"/>
      <point x="51" y="60" type="line"/>
    </contour>
    <contour>
      <point x="51" y="60" type="line"/>
      <point x="51" y="60" type="line"/>
      <point x="51" y="60" type="line"/>
      <point x="44.3" y="60.0"/>
      <point x="40.0" y="55.36"/>
      <point x="40" y="50" type="curve"/>
      <point x="40" y="50" type="line"/>
      <point x="40" y="50" type="line"/>
      <point x="50" y="50" type="line"/>
      <point x="50" y="50" type="line"/>
      <point x="50.0" y="50.0"/>
      <point x="50.0" y="50.0"/>
      <point x="50" y="50" type="curve"/>
      <point x="50" y="50" type="line"/>
    </contour>
  </outline>
</glyph>
<glyph name="Pix01@01_i" format="2">
  <advance width="100"/>
  <outline>
    <contour>
      <point x="-6" y="-10" type="line"/>
      <point x="-5" y="2" type="line"/>
      <point x="-5" y="2" type="line"/>
      <point x="-5.0" y="2.0"/>
      <point x="-5.0" y="2.0"/>
      <point x="-5" y="2" type="curve"/>
      <point x="-5" y="2" type="line"/>
      <point x="-17" y="2" type="line"/>
      <point x="-17" y="2" type="line"/>
      <point x="-17" y="2" type="line"/>
      <point x="-18.0" y="-5.0"/>
      <point x="-14.0" y="-10.0"/>
      <point x="-8" y="-10" type="curve"/>
      <point x="-7" y="-10" type="line"/>
    </contour>
    <contour>
      <point x="90" y="-10" type="line"/>
      <point x="90" y="-10" type="line"/>
      <point x="90" y="-10" type="line"/>
      <point x="97.0" y="-10.0"/>
      <point x="101.99999999999999" y="-5.0"/>
      <point x="103" y="2" type="curve"/>
      <point x="103" y="2" type="line"/>
      <point x="103" y="2" type="line"/>
      <point x="91" y="2" type="line"/>
      <point x="91" y="2" type="line"/>
      <point x="91.0" y="2.0"/>
      <point x="91.0" y="2.0"/>
      <point x="91" y="2" type="curve"/>
      <point x="91" y="2" type="line"/>
    </contour>
    <contour>
      <point x="106" y="110" type="line"/>
      <point x="105" y="98" type="line"/>
      <point x="105" y="98" type="line"/>
      <point x="105.0" y="98.0"/>
      <point x="105.0" y="98.0"/>
      <point x="105" y="98" type="curve"/>
      <point x="105" y="98" type="line"/>
      <point x="117" y="98" type="line"/>
      <point x="117" y="98" type="line"/>
      <point x="117" y="98" type="line"/>
      <point x="118.00000000000001" y="105.0"/>
      <point x="113.99999999999999" y="110.0"/>
      <point x="106" y="110" type="curve"/>
      <point x="106" y="110" type="line"/>
    </contour>
    <contour>
      <point x="10" y="110" type="line"/>
      <point x="10" y="110" type="line"/>
      <point x="10" y="110" type="line"/>
      <point x="3.0" y="110.0"/>
      <point x="-2.0" y="105.0"/>
      <point x="-3" y="98" type="curve"/>
      <point x="-3" y="98" type="line"/>
      <point x="-3" y="98" type="line"/>
      <point x="9" y="98" type="line"/>
      <point x="9" y="98" type="line"/>
      <point x="9.0" y="98.0"/>
      <point x="9.0" y="98.0"/>
      <point x="9" y="98" type="curve"/>
      <point x="9" y="98" type="line"/>
    </contour>
  </outline>
</glyph>
<glyph name="Pix01@20" format="2">
  <advance width="100"/>
  <guideline x="50" y="133" angle="90" identifier="0TEQn04FOP"/>
  <guideline x="68" y="100" angle="0" identifier="j7AK2k8kV6"/>
  <guideline x="125" y="50" angle="0" identifier="VHhNmLRBqe"/>
  <outline>
    <contour>
      <point x="52" y="-49" type="line"/>
      <point x="52" y="52" type="line"/>
      <point x="52" y="52" type="line"/>
      <point x="52" y="52"/>
      <point x="52" y="52"/>
      <point x="52" y="52" type="curve"/>
      <point x="52" y="52" type="line"/>
      <point x="-49" y="52" type="line"/>
      <point x="-50" y="51" type="line"/>
      <point x="-50" y="50" type="line"/>
      <point x="-50" y="-9"/>
      <point x="-9" y="-50"/>
      <point x="50" y="-50" type="curve"/>
      <point x="51" y="-50" type="line"/>
    </contour>
    <contour>
      <point x="48" y="-49" type="line"/>
      <point x="49" y="-50" type="line"/>
      <point x="50" y="-50" type="line"/>
      <point x="109" y="-50"/>
      <point x="150" y="-9"/>
      <point x="150" y="50" type="curve"/>
      <point x="150" y="51" type="line"/>
      <point x="149" y="52" type="line"/>
      <point x="48" y="52" type="line"/>
      <point x="48" y="52" type="line"/>
      <point x="48" y="52"/>
      <point x="48" y="52"/>
      <point x="48" y="52" type="curve"/>
      <point x="48" y="52" type="line"/>
    </contour>
    <contour>
      <point x="48" y="149" type="line"/>
      <point x="48" y="48" type="line"/>
      <point x="48" y="48" type="line"/>
      <point x="48" y="48"/>
      <point x="48" y="48"/>
      <point x="48" y="48" type="curve"/>
      <point x="48" y="48" type="line"/>
      <point x="149" y="48" type="line"/>
      <point x="150" y="49" type="line"/>
      <point x="150" y="50" type="line"/>
      <point x="150" y="109"/>
      <point x="109" y="150"/>
      <point x="50" y="150" type="curve"/>
      <point x="49" y="150" type="line"/>
    </contour>
    <contour>
      <point x="52" y="149" type="line"/>
      <point x="51" y="150" type="line"/>
      <point x="50" y="150" type="line"/>
      <point x="-9" y="150"/>
      <point x="-50" y="109"/>
      <point x="-50" y="50" type="curve"/>
      <point x="-50" y="49" type="line"/>
      <point x="-49" y="48" type="line"/>
      <point x="52" y="48" type="line"/>
      <point x="52" y="48" type="line"/>
      <point x="52" y="48"/>
      <point x="52" y="48"/>
      <point x="52" y="48" type="curve"/>
      <point x="52" y="48" type="line"/>
    </contour>
  </outline>
</glyph>
<glyph name="Pix03@00_i" format="2">
  <advance width="100"/>
  <outline>
    <contour>
      <point x="50" y="38" type="line"/>
      <point x="50" y="42" type="line"/>
      <point x="50" y="42" type="line"/>
      <point x="44.64" y="42.0"/>
      <point x="42.0" y="44.64"/>
      <point x="42" y="50" type="curve"/>
      <point x="42" y="50" type="line"/>
      <point x="38" y="50" type="line"/>
      <point x="37" y="38" type="line"/>
      <point x="37" y="38" type="line"/>
      <point x="37.0" y="38.0"/>
      <point x="37.0" y="38.0"/>
      <point x="37" y="38" type="curve"/>
      <point x="37" y="38" type="line"/>
    </contour>
    <contour>
      <point x="50" y="38" type="line"/>
      <point x="61" y="38" type="line"/>
      <point x="61" y="38" type="line"/>
      <point x="61.0" y="38.0"/>
      <point x="61.0" y="38.0"/>
      <point x="61" y="38" type="curve"/>
      <point x="61" y="38" type="line"/>
      <point x="62" y="50" type="line"/>
      <point x="58" y="50" type="line"/>
      <point x="58" y="50" type="line"/>
      <point x="58.0" y="44.64"/>
      <point x="55.36" y="42.0"/>
      <point x="50" y="42" type="curve"/>
      <point x="50" y="42" type="line"/>
    </contour>
    <contour>
      <point x="50" y="62" type="line"/>
      <point x="50" y="58" type="line"/>
      <point x="50" y="58" type="line"/>
      <point x="55.36" y="58.0"/>
      <point x="58.0" y="55.36"/>
      <point x="58" y="50" type="curve"/>
      <point x="58" y="50" type="line"/>
      <point x="62" y="50" type="line"/>
      <point x="63" y="62" type="line"/>
      <point x="63" y="62" type="line"/>
      <point x="63.0" y="62.0"/>
      <point x="63.0" y="62.0"/>
      <point x="63" y="62" type="curve"/>
      <point x="63" y="62" type="line"/>
    </contour>
    <contour>
      <point x="50" y="62" type="line"/>
      <point x="39" y="62" type="line"/>
      <point x="39" y="62" type="line"/>
      <point x="39.0" y="62.0"/>
      <point x="39.0" y="62.0"/>
      <point x="39" y="62" type="curve"/>
      <point x="39" y="62" type="line"/>
      <point x="38" y="50" type="line"/>
      <point x="42" y="50" type="line"/>
      <point x="42" y="50" type="line"/>
      <point x="42.0" y="55.36"/>
      <point x="44.64" y="58.0"/>
      <point x="50" y="58" type="curve"/>
      <point x="50" y="58" type="line"/>
    </contour>
  </outline>
</glyph>
<glyph name="Pix03@11" format="2">
  <advance width="100"/>
  <guideline x="50" y="133" angle="90" identifier="0TEQn04FOP"/>
  <guideline x="68" y="100" angle="0" identifier="j7AK2k8kV6"/>
  <guideline x="125" y="50" angle="0" identifier="VHhNmLRBqe"/>
  <outline>
    <contour>
      <point x="2" y="-52" type="line"/>
      <point x="2" y="-48" type="line"/>
      <point x="2" y="-48" type="line"/>
      <point x="-27" y="-48"/>
      <point x="-48" y="-27"/>
      <point x="-48" y="2" type="curve"/>
      <point x="-48" y="2" type="line"/>
      <point x="-52" y="2" type="line"/>
      <point x="-52" y="-52" type="line"/>
      <point x="-52" y="-52" type="line"/>
      <point x="-52" y="-52"/>
      <point x="-52" y="-52"/>
      <point x="-52" y="-52" type="curve"/>
      <point x="-52" y="-52" type="line"/>
    </contour>
    <contour>
      <point x="98" y="-52" type="line"/>
      <point x="152" y="-52" type="line"/>
      <point x="152" y="-52" type="line"/>
      <point x="152" y="-52"/>
      <point x="152" y="-52"/>
      <point x="152" y="-52" type="curve"/>
      <point x="152" y="-52" type="line"/>
      <point x="152" y="2" type="line"/>
      <point x="148" y="2" type="line"/>
      <point x="148" y="2" type="line"/>
      <point x="148" y="-27"/>
      <point x="127" y="-48"/>
      <point x="98" y="-48" type="curve"/>
      <point x="98" y="-48" type="line"/>
    </contour>
    <contour>
      <point x="98" y="152" type="line"/>
      <point x="98" y="148" type="line"/>
      <point x="98" y="148" type="line"/>
      <point x="127" y="148"/>
      <point x="148" y="127"/>
      <point x="148" y="98" type="curve"/>
      <point x="148" y="98" type="line"/>
      <point x="152" y="98" type="line"/>
      <point x="152" y="152" type="line"/>
      <point x="152" y="152" type="line"/>
      <point x="152" y="152"/>
      <point x="152" y="152"/>
      <point x="152" y="152" type="curve"/>
      <point x="152" y="152" type="line"/>
    </contour>
    <contour>
      <point x="2" y="152" type="line"/>
      <point x="-52" y="152" type="line"/>
      <point x="-52" y="152" type="line"/>
      <point x="-52" y="152"/>
      <point x="-52" y="152"/>
      <point x="-52" y="152" type="curve"/>
      <point x="-52" y="152" type="line"/>
      <point x="-52" y="98" type="line"/>
      <point x="-48" y="98" type="line"/>
      <point x="-48" y="98" type="line"/>
      <point x="-48" y="127"/>
      <point x="-27" y="148"/>
      <point x="2" y="148" type="curve"/>
      <point x="2" y="148" type="line"/>
    </contour>
  </outline>
</glyph>
<glyph name="Pix03@20" format="2">
  <advance width="100"/>
  <guideline x="50" y="133" angle="90" identifier="0TEQn04FOP"/>
  <guideline x="68" y="100" angle="0" identifier="j7AK2k8kV6"/>
  <guideline x="125" y="50" angle="0" identifier="VHhNmLRBqe"/>
  <outline>
    <contour>
      <point x="51" y="-52" type="line"/>
      <point x="51" y="-48" type="line"/>
      <point x="50" y="-48" type="line"/>
      <point x="-8" y="-48"/>
      <point x="-48" y="-8"/>
      <point x="-48" y="50" type="curve"/>
      <point x="-48" y="51" type="line"/>
      <point x="-52" y="51" type="line"/>
      <point x="-52" y="-52" type="line"/>
      <point x="-52" y="-52" type="line"/>
      <point x="-52" y="-52"/>
      <point x="-52" y="-52"/>
      <point x="-52" y="-52" type="curve"/>
      <point x="-52" y="-52" type="line"/>
    </contour>
    <contour>
      <point x="49" y="-52" type="line"/>
      <point x="152" y="-52" type="line"/>
      <point x="152" y="-52" type="line"/>
      <point x="152" y="-52"/>
      <point x="152" y="-52"/>
      <point x="152" y="-52" type="curve"/>
      <point x="152" y="-52" type="line"/>
      <point x="152" y="51" type="line"/>
      <point x="148" y="51" type="line"/>
      <point x="148" y="50" type="line"/>
      <point x="148" y="-8"/>
      <point x="108" y="-48"/>
      <point x="50" y="-48" type="curve"/>
      <point x="49" y="-48" type="line"/>
    </contour>
    <contour>
      <point x="49" y="152" type="line"/>
      <point x="49" y="148" type="line"/>
      <point x="50" y="148" type="line"/>
      <point x="108" y="148"/>
      <point x="148" y="108"/>
      <point x="148" y="50" type="curve"/>
      <point x="148" y="49" type="line"/>
      <point x="152" y="49" type="line"/>
      <point x="152" y="152" type="line"/>
      <point x="152" y="152" type="line"/>
      <point x="152" y="152"/>
      <point x="152" y="152"/>
      <point x="152" y="152" type="curve"/>
      <point x="152" y="152" type="line"/>
    </contour>
    <contour>
      <point x="51" y="152" type="line"/>
      <point x="-52" y="152" type="line"/>
      <point x="-52" y="152" type="line"/>
      <point x="-52" y="152"/>
      <point x="-52" y="152"/>
      <point x="-52" y="152" type="curve"/>
      <point x="-52" y="152" type="line"/>
      <point x="-52" y="49" type="line"/>
      <point x="-48" y="49" type="line"/>
      <point x="-48" y="50" type="line"/>
      <point x="-48" y="108"/>
      <point x="-8" y="148"/>
      <point x="50" y="148" type="curve"/>
      <point x="51" y="148" type="line"/>
    </contour>
  </outline>
</glyph>
<glyph name="Pix04@20_i" format="2">
  <advance width="100"/>
  <outline>
    <contour>
      <point x="36" y="-52" type="line"/>
      <point x="36" y="-48" type="line"/>
      <point x="36" y="-48" type="line"/>
      <point x="-7" y="1"/>
      <point x="-7" y="1"/>
      <point x="-48" y="50" type="curve"/>
      <point x="-48" y="50" type="line"/>
      <point x="-52" y="50" type="line"/>
      <point x="-66" y="-52" type="line"/>
      <point x="-66" y="-52" type="line"/>
      <point x="-66.0" y="-52.0"/>
      <point x="-66.0" y="-52.0"/>
      <point x="-66" y="-52" type="curve"/>
      <point x="-66" y="-52" type="line"/>
    </contour>
    <contour>
      <point x="36" y="-52" type="line"/>
      <point x="138" y="-52" type="line"/>
      <point x="138" y="-52" type="line"/>
      <point x="138.0" y="-52.0"/>
      <point x="138.0" y="-52.0"/>
      <point x="138" y="-52" type="curve"/>
      <point x="138" y="-52" type="line"/>
      <point x="152" y="50" type="line"/>
      <point x="148" y="50" type="line"/>
      <point x="148" y="50" type="line"/>
      <point x="94" y="1"/>
      <point x="94" y="1"/>
      <point x="36" y="-48" type="curve"/>
      <point x="36" y="-48" type="line"/>
    </contour>
    <contour>
      <point x="64" y="152" type="line"/>
      <point x="64" y="148" type="line"/>
      <point x="64" y="148" type="line"/>
      <point x="107" y="99"/>
      <point x="107" y="99"/>
      <point x="148" y="50" type="curve"/>
      <point x="148" y="50" type="line"/>
      <point x="152" y="50" type="line"/>
      <point x="166" y="152" type="line"/>
      <point x="166" y="152" type="line"/>
      <point x="166.0" y="152.0"/>
      <point x="166.0" y="152.0"/>
      <point x="166" y="152" type="curve"/>
      <point x="166" y="152" type="line"/>
    </contour>
    <contour>
      <point x="64" y="152" type="line"/>
      <point x="-38" y="152" type="line"/>
      <point x="-38" y="152" type="line"/>
      <point x="-38.0" y="152.0"/>
      <point x="-38.0" y="152.0"/>
      <point x="-38" y="152" type="curve"/>
      <point x="-38" y="152" type="line"/>
      <point x="-52" y="50" type="line"/>
      <point x="-48" y="50" type="line"/>
      <point x="-48" y="50" type="line"/>
      <point x="9" y="99"/>
      <point x="9" y="99"/>
      <point x="64" y="148" type="curve"/>
      <point x="64" y="148" type="line"/>
    </contour>
  </outline>
</glyph>
<glyph name="Pix04@21" format="2">
  <advance width="100"/>
  <guideline x="50" y="133" angle="90" identifier="0TEQn04FOP"/>
  <guideline x="68" y="100" angle="0" identifier="j7AK2k8kV6"/>
  <guideline x="125" y="50" angle="0" identifier="VHhNmLRBqe"/>
  <guideline x="-13" y="25" angle="0" identifier="lhfIYr4Ekd"/>
  <guideline x="-22" y="75" angle="0" identifier="M8YhAuLaaj"/>
  <outline>
    <contour>
      <point x="2" y="-102" type="line"/>
      <point x="2" y="-98" type="line"/>
      <point x="2" y="-98" type="line"/>
      <point x="-65.0" y="-31.0"/>
      <point x="-31.0" y="-65.0"/>
      <point x="-98" y="2" type="curve"/>
      <point x="-98" y="2" type="line"/>
      <point x="-102" y="2" type="line"/>
      <point x="-102" y="-102" type="line"/>
      <point x="-102" y="-102" type="line"/>
      <point x="-102.0" y="-102.0"/>
      <point x="-102.0" y="-102.0"/>
      <point x="-102" y="-102" type="curve"/>
      <point x="-102" y="-102" type="line"/>
    </contour>
    <contour>
      <point x="98" y="-102" type="line"/>
      <point x="202" y="-102" type="line"/>
      <point x="202" y="-102" type="line"/>
      <point x="202.0" y="-102.0"/>
      <point x="202.0" y="-102.0"/>
      <point x="202" y="-102" type="curve"/>
      <point x="202" y="-102" type="line"/>
      <point x="202" y="2" type="line"/>
      <point x="198" y="2" type="line"/>
      <point x="198" y="2" type="line"/>
      <point x="131.0" y="-66.34"/>
      <point x="165.0" y="-33.67999999999999"/>
      <point x="98" y="-98" type="curve"/>
      <point x="98" y="-98" type="line"/>
    </contour>
    <contour>
      <point x="98" y="202" type="line"/>
      <point x="98" y="198" type="line"/>
      <point x="98" y="198" type="line"/>
      <point x="167.68" y="129.66"/>
      <point x="133.68" y="163.66000000000003"/>
      <point x="198" y="98" type="curve"/>
      <point x="198" y="98" type="line"/>
      <point x="202" y="98" type="line"/>
      <point x="202" y="202" type="line"/>
      <point x="202" y="202" type="line"/>
      <point x="202.0" y="202.0"/>
      <point x="202.0" y="202.0"/>
      <point x="202" y="202" type="curve"/>
      <point x="202" y="202" type="line"/>
    </contour>
    <contour>
      <point x="2" y="202" type="line"/>
      <point x="-102" y="202" type="line"/>
      <point x="-102" y="202" type="line"/>
      <point x="-102.0" y="202.0"/>
      <point x="-102.0" y="202.0"/>
      <point x="-102" y="202" type="curve"/>
      <point x="-102" y="202" type="line"/>
      <point x="-102" y="98" type="line"/>
      <point x="-98" y="98" type="line"/>
      <point x="-98" y="98" type="line"/>
      <point x="-28.319999999999993" y="167.68"/>
      <point x="-62.32000000000001" y="133.68"/>
      <point x="2" y="198" type="curve"/>
      <point x="2" y="198" type="line"/>
    </contour>
  </outline>
</glyph>
<glyph name="Pix05@01_i" format="2">
  <advance width="100"/>
  <outline>
    <contour>
      <point x="-6" y="-12" type="line"/>
      <point x="-6" y="-8" type="line"/>
      <point x="-16" y="-8" type="line"/>
      <point x="-16.0" y="-8.0"/>
      <point x="-16.0" y="-8.0"/>
      <point x="-16" y="-8" type="curve"/>
      <point x="-15" y="2" type="line"/>
      <point x="-19" y="2" type="line"/>
      <point x="-20" y="-12" type="line"/>
      <point x="-20" y="-12" type="line"/>
      <point x="-20.0" y="-12.0"/>
      <point x="-20.0" y="-12.0"/>
      <point x="-20" y="-12" type="curve"/>
      <point x="-20" y="-12" type="line"/>
    </contour>
    <contour>
      <point x="90" y="-12" type="line"/>
      <point x="104" y="-12" type="line"/>
      <point x="104" y="-12" type="line"/>
      <point x="104.0" y="-12.0"/>
      <point x="104.0" y="-12.0"/>
      <point x="104" y="-12" type="curve"/>
      <point x="104" y="-12" type="line"/>
      <point x="105" y="2" type="line"/>
      <point x="101" y="2" type="line"/>
      <point x="100" y="-8" type="line"/>
      <point x="100.0" y="-8.0"/>
      <point x="100.0" y="-8.0"/>
      <point x="100" y="-8" type="curve"/>
      <point x="90" y="-8" type="line"/>
    </contour>
    <contour>
      <point x="106" y="112" type="line"/>
      <point x="106" y="108" type="line"/>
      <point x="116" y="108" type="line"/>
      <point x="116.0" y="108.0"/>
      <point x="116.0" y="108.0"/>
      <point x="116" y="108" type="curve"/>
      <point x="115" y="98" type="line"/>
      <point x="119" y="98" type="line"/>
      <point x="120" y="112" type="line"/>
      <point x="120" y="112" type="line"/>
      <point x="120.0" y="112.0"/>
      <point x="120.0" y="112.0"/>
      <point x="120" y="112" type="curve"/>
      <point x="120" y="112" type="line"/>
    </contour>
    <contour>
      <point x="10" y="112" type="line"/>
      <point x="-4" y="112" type="line"/>
      <point x="-4" y="112" type="line"/>
      <point x="-4.0" y="112.0"/>
      <point x="-4.0" y="112.0"/>
      <point x="-4" y="112" type="curve"/>
      <point x="-4" y="112" type="line"/>
      <point x="-5" y="98" type="line"/>
      <point x="-1" y="98" type="line"/>
      <point x="0" y="108" type="line"/>
      <point x="0.0" y="108.0"/>
      <point x="0.0" y="108.0"/>
      <point x="0" y="108" type="curve"/>
      <point x="10" y="108" type="line"/>
    </contour>
  </outline>
</glyph>
<glyph name="Pix06@00_i" format="2">
  <advance width="100"/>
  <outline>
    <contour>
      <point x="50" y="38" type="line"/>
      <point x="51" y="50" type="line"/>
      <point x="50" y="50" type="line"/>
      <point x="50.0" y="50.0"/>
      <point x="50.0" y="50.0"/>
      <point x="50" y="50" type="curve"/>
      <point x="50" y="50" type="line"/>
      <point x="38" y="50" type="line"/>
      <point x="37" y="38" type="line"/>
      <point x="37" y="38" type="line"/>
      <point x="37.0" y="38.0"/>
      <point x="37.0" y="38.0"/>
      <point x="37" y="38" type="curve"/>
      <point x="37" y="38" type="line"/>
    </contour>
    <contour>
      <point x="48" y="38" type="line"/>
      <point x="61" y="38" type="line"/>
      <point x="61" y="38" type="line"/>
      <point x="61.0" y="38.0"/>
      <point x="61.0" y="38.0"/>
      <point x="61" y="38" type="curve"/>
      <point x="61" y="38" type="line"/>
      <point x="62" y="50" type="line"/>
      <point x="50" y="50" type="line"/>
      <point x="50" y="50" type="line"/>
      <point x="50.0" y="50.0"/>
      <point x="50.0" y="50.0"/>
      <point x="50" y="50" type="curve"/>
      <point x="49" y="50" type="line"/>
    </contour>
    <contour>
      <point x="50" y="62" type="line"/>
      <point x="49" y="50" type="line"/>
      <point x="50" y="50" type="line"/>
      <point x="50.0" y="50.0"/>
      <point x="50.0" y="50.0"/>
      <point x="50" y="50" type="curve"/>
      <point x="50" y="50" type="line"/>
      <point x="62" y="50" type="line"/>
      <point x="63" y="62" type="line"/>
      <point x="63" y="62" type="line"/>
      <point x="63.0" y="62.0"/>
      <point x="63.0" y="62.0"/>
      <point x="63" y="62" type="curve"/>
      <point x="63" y="62" type="line"/>
    </contour>
    <contour>
      <point x="52" y="62" type="line"/>
      <point x="39" y="62" type="line"/>
      <point x="39" y="62" type="line"/>
      <point x="39.0" y="62.0"/>
      <point x="39.0" y="62.0"/>
      <point x="39" y="62" type="curve"/>
      <point x="39" y="62" type="line"/>
      <point x="38" y="50" type="line"/>
      <point x="50" y="50" type="line"/>
      <point x="50" y="50" type="line"/>
      <point x="50.0" y="50.0"/>
      <point x="50.0" y="50.0"/>
      <point x="50" y="50" type="curve"/>
      <point x="51" y="50" type="line"/>
    </contour>
  </outline>
</glyph>
<glyph name="Pix06@20" format="2">
  <advance width="100"/>
  <guideline x="50" y="133" angle="90" identifier="0TEQn04FOP"/>
  <guideline x="68" y="100" angle="0" identifier="j7AK2k8kV6"/>
  <guideline x="125" y="50" angle="0" identifier="VHhNmLRBqe"/>
  <outline>
    <contour>
      <point x="52" y="-52" type="line"/>
      <point x="52" y="50" type="line"/>
      <point x="51" y="50" type="line"/>
      <point x="50" y="50"/>
      <point x="50" y="50"/>
      <point x="50" y="51" type="curve"/>
      <point x="50" y="52" type="line"/>
      <point x="-52" y="52" type="line"/>
      <point x="-52" y="-52" type="line"/>
      <point x="-52" y="-52" type="line"/>
      <point x="-52" y="-52"/>
      <point x="-52" y="-52"/>
      <point x="-52" y="-52" type="curve"/>
      <point x="-52" y="-52" type="line"/>
    </contour>
    <contour>
      <point x="48" y="-52" type="line"/>
      <point x="152" y="-52" type="line"/>
      <point x="152" y="-52" type="line"/>
      <point x="152" y="-52"/>
      <point x="152" y="-52"/>
      <point x="152" y="-52" type="curve"/>
      <point x="152" y="-52" type="line"/>
      <point x="152" y="52" type="line"/>
      <point x="50" y="52" type="line"/>
      <point x="50" y="51" type="line"/>
      <point x="50" y="50"/>
      <point x="50" y="50"/>
      <point x="49" y="50" type="curve"/>
      <point x="48" y="50" type="line"/>
    </contour>
    <contour>
      <point x="48" y="152" type="line"/>
      <point x="48" y="50" type="line"/>
      <point x="49" y="50" type="line"/>
      <point x="50" y="50"/>
      <point x="50" y="50"/>
      <point x="50" y="49" type="curve"/>
      <point x="50" y="48" type="line"/>
      <point x="152" y="48" type="line"/>
      <point x="152" y="152" type="line"/>
      <point x="152" y="152" type="line"/>
      <point x="152" y="152"/>
      <point x="152" y="152"/>
      <point x="152" y="152" type="curve"/>
      <point x="152" y="152" type="line"/>
    </contour>
    <contour>
      <point x="52" y="152" type="line"/>
      <point x="-52" y="152" type="line"/>
      <point x="-52" y="152" type="line"/>
      <point x="-52" y="152"/>
      <point x="-52" y="152"/>
      <point x="-52" y="152" type="curve"/>
      <point x="-52" y="152" type="line"/>
      <point x="-52" y="48" type="line"/>
      <point x="50" y="48" type="line"/>
      <point x="50" y="49" type="line"/>
      <point x="50" y="50"/>
      <point x="50" y="50"/>
      <point x="51" y="50" type="curve"/>
      <point x="52" y="50" type="line"/>
    </contour>
  </outline>
</glyph>
<glyph name="Pix07@00_i" format="2">
  <advance width="100"/>
  <outline>
    <contour>
      <point x="48.0" y="38.0" type="line"/>
      <point x="50.0" y="50.0" type="line"/>
      <point x="50.0" y="50.0" type="line"/>
      <point x="50.0" y="50.0"/>
      <point x="50.0" y="50.0"/>
      <point x="50.0" y="50.0" type="curve"/>
      <point x="50.0" y="50.0" type="line"/>
      <point x="38.0" y="50.0" type="line"/>
      <point x="36.0" y="38.0" type="line"/>
      <point x="36.0" y="38.0" type="line"/>
      <point x="36.0" y="38.0"/>
      <point x="36.0" y="38.0"/>
      <point x="36.0" y="38.0" type="curve"/>
      <point x="36.0" y="38.0" type="line"/>
    </contour>
    <contour>
      <point x="48.0" y="38.0" type="line"/>
      <point x="60.0" y="38.0" type="line"/>
      <point x="60.0" y="38.0" type="line"/>
      <point x="60.0" y="38.0"/>
      <point x="60.0" y="38.0"/>
      <point x="60.0" y="38.0" type="curve"/>
      <point x="60.0" y="38.0" type="line"/>
      <point x="62.0" y="50.0" type="line"/>
      <point x="50.0" y="50.0" type="line"/>
      <point x="50.0" y="50.0" type="line"/>
      <point x="50.0" y="50.0"/>
      <point x="50.0" y="50.0"/>
      <point x="50.0" y="50.0" type="curve"/>
      <point x="50.0" y="50.0" type="line"/>
    </contour>
    <contour>
      <point x="52.0" y="62.0" type="line"/>
      <point x="50.0" y="50.0" type="line"/>
      <point x="50.0" y="50.0" type="line"/>
      <point x="50.0" y="50.0"/>
      <point x="50.0" y="50.0"/>
      <point x="50.0" y="50.0" type="curve"/>
      <point x="50.0" y="50.0" type="line"/>
      <point x="62.0" y="50.0" type="line"/>
      <point x="64.0" y="62.0" type="line"/>
      <point x="64.0" y="62.0" type="line"/>
      <point x="64.0" y="62.0"/>
      <point x="64.0" y="62.0"/>
      <point x="64.0" y="62.0" type="curve"/>
      <point x="64.0" y="62.0" type="line"/>
    </contour>
    <contour>
      <point x="52.0" y="62.0" type="line"/>
      <point x="40.0" y="62.0" type="line"/>
      <point x="40.0" y="62.0" type="line"/>
      <point x="40.0" y="62.0"/>
      <point x="40.0" y="62.0"/>
      <point x="40.0" y="62.0" type="curve"/>
      <point x="40.0" y="62.0" type="line"/>
      <point x="38.0" y="50.0" type="line"/>
      <point x="50.0" y="50.0" type="line"/>
      <point x="50.0" y="50.0" type="line"/>
      <point x="50.0" y="50.0"/>
      <point x="50.0" y="50.0"/>
      <point x="50.0" y="50.0" type="curve"/>
      <point x="50.0" y="50.0" type="line"/>
    </contour>
  </outline>
</glyph>
<glyph name="Pix07@10_i" format="2">
  <advance width="100"/>
  <outline>
    <contour>
      <point x="45.0" y="-2.0" type="line"/>
      <point x="52.0" y="50.0" type="line"/>
      <point x="52.0" y="50.0" type="line"/>
      <point x="52.0" y="50.0"/>
      <point x="52.0" y="50.0"/>
      <point x="52.0" y="50.0" type="curve"/>
      <point x="52.0" y="50.0" type="line"/>
      <point x="-2.0" y="50.0" type="line"/>
      <point x="-9.0" y="-2.0" type="line"/>
      <point x="-9.0" y="-2.0" type="line"/>
      <point x="-9.0" y="-2.0"/>
      <point x="-9.0" y="-2.0"/>
      <point x="-9.0" y="-2.0" type="curve"/>
      <point x="-9.0" y="-2.0" type="line"/>
    </contour>
    <contour>
      <point x="41.0" y="-2.0" type="line"/>
      <point x="95.0" y="-2.0" type="line"/>
      <point x="95.0" y="-2.0" type="line"/>
      <point x="95.0" y="-2.0"/>
      <point x="95.0" y="-2.0"/>
      <point x="95.0" y="-2.0" type="curve"/>
      <point x="95.0" y="-2.0" type="line"/>
      <point x="102.0" y="50.0" type="line"/>
      <point x="48.0" y="50.0" type="line"/>
      <point x="48.0" y="50.0" type="line"/>
      <point x="48.0" y="50.0"/>
      <point x="48.0" y="50.0"/>
      <point x="48.0" y="50.0" type="curve"/>
      <point x="48.0" y="50.0" type="line"/>
    </contour>
    <contour>
      <point x="55.0" y="102.0" type="line"/>
      <point x="48.0" y="50.0" type="line"/>
      <point x="48.0" y="50.0" type="line"/>
      <point x="48.0" y="50.0"/>
      <point x="48.0" y="50.0"/>
      <point x="48.0" y="50.0" type="curve"/>
      <point x="48.0" y="50.0" type="line"/>
      <point x="102.0" y="50.0" type="line"/>
      <point x="109.0" y="102.0" type="line"/>
      <point x="109.0" y="102.0" type="line"/>
      <point x="109.0" y="102.0"/>
      <point x="109.0" y="102.0"/>
      <point x="109.0" y="102.0" type="curve"/>
      <point x="109.0" y="102.0" type="line"/>
    </contour>
    <contour>
      <point x="59.0" y="102.0" type="line"/>
      <point x="5.0" y="102.0" type="line"/>
      <point x="5.0" y="102.0" type="line"/>
      <point x="5.0" y="102.0"/>
      <point x="5.0" y="102.0"/>
      <point x="5.0" y="102.0" type="curve"/>
      <point x="5.0" y="102.0" type="line"/>
      <point x="-2.0" y="50.0" type="line"/>
      <point x="52.0" y="50.0" type="line"/>
      <point x="52.0" y="50.0" type="line"/>
      <point x="52.0" y="50.0"/>
      <point x="52.0" y="50.0"/>
      <point x="52.0" y="50.0" type="curve"/>
      <point x="52.0" y="50.0" type="line"/>
    </contour>
  </outline>
</glyph>
<glyph name="Pix09@10_i" format="2">
  <advance width="100"/>
  <outline>
    <contour>
      <point x="45" y="-2" type="line"/>
      <point x="52" y="52" type="line"/>
      <point x="52" y="52" type="line"/>
      <point x="52.0" y="52.0"/>
      <point x="52.0" y="52.0"/>
      <point x="52" y="52" type="curve"/>
      <point x="52" y="52" type="line"/>
      <point x="-2" y="52" type="line"/>
      <point x="-2" y="48" type="line"/>
      <point x="-2" y="48" type="line"/>
      <point x="24.8" y="15.839999999999996"/>
      <point x="15.54" y="27.48"/>
      <point x="41" y="-2" type="curve"/>
      <point x="41" y="-2" type="line"/>
    </contour>
    <contour>
      <point x="41" y="-2" type="line"/>
      <point x="45" y="-2" type="line"/>
      <point x="45" y="-2" type="line"/>
      <point x="78.5" y="27.48"/>
      <point x="64.47999999999999" y="15.839999999999996"/>
      <point x="102" y="48" type="curve"/>
      <point x="102" y="48" type="line"/>
      <point x="102" y="52" type="line"/>
      <point x="48" y="52" type="line"/>
      <point x="48" y="52" type="line"/>
      <point x="48.0" y="52.0"/>
      <point x="48.0" y="52.0"/>
      <point x="48" y="52" type="curve"/>
      <point x="48" y="52" type="line"/>
    </contour>
    <contour>
      <point x="55" y="102" type="line"/>
      <point x="48" y="48" type="line"/>
      <point x="48" y="48" type="line"/>
      <point x="48.0" y="48.0"/>
      <point x="48.0" y="48.0"/>
      <point x="48" y="48" type="curve"/>
      <point x="48" y="48" type="line"/>
      <point x="102" y="48" type="line"/>
      <point x="102" y="52" type="line"/>
      <point x="102" y="52" type="line"/>
      <point x="75.0" y="84.0"/>
      <point x="84.0" y="73.0"/>
      <point x="59" y="102" type="curve"/>
      <point x="59" y="102" type="line"/>
    </contour>
    <contour>
      <point x="59" y="102" type="line"/>
      <point x="55" y="102" type="line"/>
      <point x="55" y="102" type="line"/>
      <point x="17.479999999999997" y="68.5"/>
      <point x="36.86" y="85.5"/>
      <point x="-2" y="52" type="curve"/>
      <point x="-2" y="52" type="line"/>
      <point x="-2" y="48" type="line"/>
      <point x="52" y="48" type="line"/>
      <point x="52" y="48" type="line"/>
      <point x="52.0" y="48.0"/>
      <point x="52.0" y="48.0"/>
      <point x="52" y="48" type="curve"/>
      <point x="52" y="48" type="line"/>
    </contour>
  </outline>
</glyph>
<glyph name="Pix09@11_i" format="2">
  <advance width="100"/>
  <outline>
    <contour>
      <point x="-12" y="-52" type="line"/>
      <point x="-5" y="2" type="line"/>
      <point x="-5" y="2" type="line"/>
      <point x="-5.0" y="2.0"/>
      <point x="-5.0" y="2.0"/>
      <point x="-5" y="2" type="curve"/>
      <point x="-5" y="2" type="line"/>
      <point x="-59" y="2" type="line"/>
      <point x="-59" y="-2" type="line"/>
      <point x="-59" y="-2" type="line"/>
      <point x="-33.54" y="-31.48"/>
      <point x="-44.14" y="-19.839999999999996"/>
      <point x="-16" y="-52" type="curve"/>
      <point x="-16" y="-52" type="line"/>
    </contour>
    <contour>
      <point x="84" y="-52" type="line"/>
      <point x="88" y="-52" type="line"/>
      <point x="88" y="-52" type="line"/>
      <point x="124.18" y="-19.839999999999996"/>
      <point x="111.5" y="-31.48"/>
      <point x="145" y="-2" type="curve"/>
      <point x="145" y="-2" type="line"/>
      <point x="145" y="2" type="line"/>
      <point x="91" y="2" type="line"/>
      <point x="91" y="2" type="line"/>
      <point x="91.0" y="2.0"/>
      <point x="91.0" y="2.0"/>
      <point x="91" y="2" type="curve"/>
      <point x="91" y="2" type="line"/>
    </contour>
    <contour>
      <point x="112" y="152" type="line"/>
      <point x="105" y="98" type="line"/>
      <point x="105" y="98" type="line"/>
      <point x="105.0" y="98.0"/>
      <point x="105.0" y="98.0"/>
      <point x="105" y="98" type="curve"/>
      <point x="105" y="98" type="line"/>
      <point x="159" y="98" type="line"/>
      <point x="159" y="102" type="line"/>
      <point x="159" y="102" type="line"/>
      <point x="133.54" y="131.48"/>
      <point x="144.14" y="119.84"/>
      <point x="116" y="152" type="curve"/>
      <point x="116" y="152" type="line"/>
    </contour>
    <contour>
      <point x="16" y="152" type="line"/>
      <point x="12" y="152" type="line"/>
      <point x="12" y="152" type="line"/>
      <point x="-24.18" y="119.84"/>
      <point x="-11.5" y="131.48"/>
      <point x="-45" y="102" type="curve"/>
      <point x="-45" y="102" type="line"/>
      <point x="-45" y="98" type="line"/>
      <point x="9" y="98" type="line"/>
      <point x="9" y="98" type="line"/>
      <point x="9.0" y="98.0"/>
      <point x="11.68" y="98.0"/>
      <point x="9" y="98" type="curve"/>
      <point x="9" y="98" type="line"/>
    </contour>
  </outline>
</glyph>
<glyph name="Pix10@01" format="2">
  <advance width="100"/>
  <guideline x="50" y="133" angle="90" identifier="0TEQn04FOP"/>
  <guideline x="68" y="100" angle="0" identifier="j7AK2k8kV6"/>
  <guideline x="125" y="50" angle="0" identifier="VHhNmLRBqe"/>
  <outline>
    <contour>
      <point x="2.0" y="-12.0" type="line"/>
      <point x="2.0" y="2.0" type="line"/>
      <point x="2.0" y="2.0" type="line"/>
      <point x="2.0" y="2.0"/>
      <point x="2.0" y="2.0"/>
      <point x="2.0" y="2.0" type="curve"/>
      <point x="2.0" y="2.0" type="line"/>
      <point x="-12.0" y="2.0" type="line"/>
      <point x="-12.0" y="-2.0" type="line"/>
      <point x="-12.0" y="-2.0" type="line"/>
      <point x="-6.64" y="-2.0"/>
      <point x="-2.0" y="-6.64"/>
      <point x="-2.0" y="-12.0" type="curve"/>
      <point x="-2.0" y="-12.0" type="line"/>
    </contour>
    <contour>
      <point x="98.0" y="-12.0" type="line"/>
      <point x="102.0" y="-12.0" type="line"/>
      <point x="102.0" y="-12.0" type="line"/>
      <point x="102.0" y="-6.64"/>
      <point x="106.64" y="-2.0"/>
      <point x="112.0" y="-2.0" type="curve"/>
      <point x="112.0" y="-2.0" type="line"/>
      <point x="112.0" y="2.0" type="line"/>
      <point x="98.0" y="2.0" type="line"/>
      <point x="98.0" y="2.0" type="line"/>
      <point x="98.0" y="2.0"/>
      <point x="98.0" y="2.0"/>
      <point x="98.0" y="2.0" type="curve"/>
      <point x="98.0" y="2.0" type="line"/>
    </contour>
    <contour>
      <point x="98.0" y="112.0" type="line"/>
      <point x="98.0" y="98.0" type="line"/>
      <point x="98.0" y="98.0" type="line"/>
      <point x="98.0" y="98.0"/>
      <point x="98.0" y="98.0"/>
      <point x="98.0" y="98.0" type="curve"/>
      <point x="98.0" y="98.0" type="line"/>
      <point x="112.0" y="98.0" type="line"/>
      <point x="112.0" y="102.0" type="line"/>
      <point x="112.0" y="102.0" type="line"/>
      <point x="106.64" y="102.0"/>
      <point x="102.0" y="106.64"/>
      <point x="102.0" y="112.0" type="curve"/>
      <point x="102.0" y="112.0" type="line"/>
    </contour>
    <contour>
      <point x="2.0" y="112.0" type="line"/>
      <point x="-2.0" y="112.0" type="line"/>
      <point x="-2.0" y="112.0" type="line"/>
      <point x="-2.0" y="106.64"/>
      <point x="-6.64" y="102.0"/>
      <point x="-12.0" y="102.0" type="curve"/>
      <point x="-12.0" y="102.0" type="line"/>
      <point x="-12.0" y="98.0" type="line"/>
      <point x="2.0" y="98.0" type="line"/>
      <point x="2.0" y="98.0" type="line"/>
      <point x="2.0" y="98.0"/>
      <point x="2.0" y="98.0"/>
      <point x="2.0" y="98.0" type="curve"/>
      <point x="2.0" y="98.0" type="line"/>
    </contour>
  </outline>
</glyph>
<glyph name="Pix11@10" format="2">
  <advance width="100"/>
  <guideline x="50" y="133" angle="90" identifier="0TEQn04FOP"/>
  <guideline x="68" y="100" angle="0" identifier="j7AK2k8kV6"/>
  <guideline x="125" y="50" angle="0" identifier="VHhNmLRBqe"/>
  <outline>
    <contour>
      <point x="52.0" y="-2.0" type="line"/>
      <point x="52.0" y="-1.0" type="line"/>
      <point x="52.0" y="0.0" type="line"/>
      <point x="52" y="31"/>
      <point x="31" y="52"/>
      <point x="0.0" y="52.0" type="curve"/>
      <point x="-1.0" y="52.0" type="line"/>
      <point x="-2.0" y="52.0" type="line"/>
      <point x="-2.0" y="48.0" type="line"/>
      <point x="0.0" y="48.0" type="line"/>
      <point x="28" y="48"/>
      <point x="48" y="28"/>
      <point x="48.0" y="0.0" type="curve"/>
      <point x="48.0" y="-2.0" type="line"/>
    </contour>
    <contour>
      <point x="48.0" y="-2.0" type="line"/>
      <point x="52.0" y="-2.0" type="line"/>
      <point x="52.0" y="0.0" type="line"/>
      <point x="52" y="28"/>
      <point x="72" y="48"/>
      <point x="100.0" y="48.0" type="curve"/>
      <point x="102.0" y="48.0" type="line"/>
      <point x="102.0" y="52.0" type="line"/>
      <point x="101.0" y="52.0" type="line"/>
      <point x="100.0" y="52.0" type="line"/>
      <point x="69" y="52"/>
      <point x="48" y="31"/>
      <point x="48.0" y="0.0" type="curve"/>
      <point x="48.0" y="-1.0" type="line"/>
    </contour>
    <contour>
      <point x="48.0" y="102.0" type="line"/>
      <point x="48.0" y="101.0" type="line"/>
      <point x="48.0" y="100.0" type="line"/>
      <point x="48" y="69"/>
      <point x="69" y="48"/>
      <point x="100.0" y="48.0" type="curve"/>
      <point x="101.0" y="48.0" type="line"/>
      <point x="102.0" y="48.0" type="line"/>
      <point x="102.0" y="52.0" type="line"/>
      <point x="100.0" y="52.0" type="line"/>
      <point x="72" y="52"/>
      <point x="52" y="72"/>
      <point x="52.0" y="100.0" type="curve"/>
      <point x="52.0" y="102.0" type="line"/>
    </contour>
    <contour>
      <point x="52.0" y="102.0" type="line"/>
      <point x="48.0" y="102.0" type="line"/>
      <point x="48.0" y="100.0" type="line"/>
      <point x="48" y="72"/>
      <point x="28" y="52"/>
      <point x="0.0" y="52.0" type="curve"/>
      <point x="-2.0" y="52.0" type="line"/>
      <point x="-2.0" y="48.0" type="line"/>
      <point x="-1.0" y="48.0" type="line"/>
      <point x="0.0" y="48.0" type="line"/>
      <point x="31" y="48"/>
      <point x="52" y="69"/>
      <point x="52.0" y="100.0" type="curve"/>
      <point x="52.0" y="101.0" type="line"/>
    </contour>
  </outline>
</glyph>
<glyph name="Pix11@10_i" format="2">
  <advance width="100"/>
  <outline>
    <contour>
      <point x="45.0" y="-2.0" type="line"/>
      <point x="45.0" y="-2.0" type="line"/>
      <point x="45.0" y="-2.0" type="line"/>
      <point x="49.02" y="30.160000000000004"/>
      <point x="31.160000000000004" y="52.0"/>
      <point x="-1.0" y="52.0" type="curve"/>
      <point x="-1.0" y="52.0" type="line"/>
      <point x="-1.0" y="52.0" type="line"/>
      <point x="-2.0" y="48.0" type="line"/>
      <point x="-2.0" y="48.0" type="line"/>
      <point x="27.48" y="48.0"/>
      <point x="45.02" y="27.48"/>
      <point x="41.0" y="-2.0" type="curve"/>
      <point x="41.0" y="-2.0" type="line"/>
    </contour>
    <contour>
      <point x="41.0" y="-2.0" type="line"/>
      <point x="45.0" y="-2.0" type="line"/>
      <point x="45.0" y="-2.0" type="line"/>
      <point x="49.02" y="27.48"/>
      <point x="71.52" y="48.0"/>
      <point x="101.0" y="48.0" type="curve"/>
      <point x="101.0" y="48.0" type="line"/>
      <point x="102.0" y="52.0" type="line"/>
      <point x="102.0" y="52.0" type="line"/>
      <point x="102.0" y="52.0" type="line"/>
      <point x="69.84" y="52.0"/>
      <point x="45.02" y="30.160000000000004"/>
      <point x="41.0" y="-2.0" type="curve"/>
      <point x="41.0" y="-2.0" type="line"/>
    </contour>
    <contour>
      <point x="56.0" y="102.0" type="line"/>
      <point x="56.0" y="102.0" type="line"/>
      <point x="56.0" y="102.0" type="line"/>
      <point x="51.98" y="69.84"/>
      <point x="68.84" y="48.0"/>
      <point x="101.0" y="48.0" type="curve"/>
      <point x="101.0" y="48.0" type="line"/>
      <point x="101.0" y="48.0" type="line"/>
      <point x="102.0" y="52.0" type="line"/>
      <point x="102.0" y="52.0" type="line"/>
      <point x="72.52" y="52.0"/>
      <point x="55.98" y="72.52"/>
      <point x="60.0" y="102.0" type="curve"/>
      <point x="60.0" y="102.0" type="line"/>
    </contour>
    <contour>
      <point x="60.0" y="102.0" type="line"/>
      <point x="56.0" y="102.0" type="line"/>
      <point x="56.0" y="102.0" type="line"/>
      <point x="51.98" y="72.52"/>
      <point x="28.48" y="52.0"/>
      <point x="-1.0" y="52.0" type="curve"/>
      <point x="-1.0" y="52.0" type="line"/>
      <point x="-2.0" y="48.0" type="line"/>
      <point x="-2.0" y="48.0" type="line"/>
      <point x="-2.0" y="48.0" type="line"/>
      <point x="30.160000000000004" y="48.0"/>
      <point x="55.98" y="69.84"/>
      <point x="60.0" y="102.0" type="curve"/>
      <point x="60.0" y="102.0" type="line"/>
    </contour>
  </outline>
</glyph>
<glyph name="Pix11@20_i" format="2">
  <advance width="100"/>
  <outline>
    <contour>
      <point x="38.0" y="-52.0" type="line"/>
      <point x="38.0" y="-52.0" type="line"/>
      <point x="38.0" y="-52.0" type="line"/>
      <point x="47.38" y="5.6200000000000045"/>
      <point x="7.960000000000001" y="52.0"/>
      <point x="-51.0" y="52.0" type="curve"/>
      <point x="-51.0" y="52.0" type="line"/>
      <point x="-51.0" y="52.0" type="line"/>
      <point x="-52.0" y="48.0" type="line"/>
      <point x="-52.0" y="48.0" type="line"/>
      <point x="5.6200000000000045" y="48.0"/>
      <point x="43.38" y="2.940000000000005"/>
      <point x="34.0" y="-52.0" type="curve"/>
      <point x="34.0" y="-52.0" type="line"/>
    </contour>
    <contour>
      <point x="34.0" y="-52.0" type="line"/>
      <point x="38.0" y="-52.0" type="line"/>
      <point x="38.0" y="-52.0" type="line"/>
      <point x="47.38" y="2.940000000000005"/>
      <point x="97.4" y="48.0"/>
      <point x="151.0" y="48.0" type="curve"/>
      <point x="151.0" y="48.0" type="line"/>
      <point x="152.0" y="52.0" type="line"/>
      <point x="152.0" y="52.0" type="line"/>
      <point x="152.0" y="52.0" type="line"/>
      <point x="95.72" y="52.0"/>
      <point x="43.38" y="5.6200000000000045"/>
      <point x="34.0" y="-52.0" type="curve"/>
      <point x="34.0" y="-52.0" type="line"/>
    </contour>
    <contour>
      <point x="63.0" y="152.0" type="line"/>
      <point x="63.0" y="152.0" type="line"/>
      <point x="63.0" y="152.0" type="line"/>
      <point x="53.62" y="94.38"/>
      <point x="92.03999999999999" y="48.0"/>
      <point x="151.0" y="48.0" type="curve"/>
      <point x="151.0" y="48.0" type="line"/>
      <point x="151.0" y="48.0" type="line"/>
      <point x="152.0" y="52.0" type="line"/>
      <point x="152.0" y="52.0" type="line"/>
      <point x="94.38" y="52.0"/>
      <point x="57.62" y="97.06"/>
      <point x="67.0" y="152.0" type="curve"/>
      <point x="67.0" y="152.0" type="line"/>
    </contour>
    <contour>
      <point x="67.0" y="152.0" type="line"/>
      <point x="63.0" y="152.0" type="line"/>
      <point x="63.0" y="152.0" type="line"/>
      <point x="53.62" y="97.06"/>
      <point x="2.6000000000000014" y="52.0"/>
      <point x="-51.0" y="52.0" type="curve"/>
      <point x="-51.0" y="52.0" type="line"/>
      <point x="-52.0" y="48.0" type="line"/>
      <point x="-52.0" y="48.0" type="line"/>
      <point x="-52.0" y="48.0" type="line"/>
      <point x="4.280000000000001" y="48.0"/>
      <point x="57.62" y="94.38"/>
      <point x="67.0" y="152.0" type="curve"/>
      <point x="67.0" y="152.0" type="line"/>
    </contour>
  </outline>
</glyph>
<glyph name="Pix11@21_i" format="2">
  <advance width="100"/>
  <outline>
    <contour>
      <point x="-19.0" y="-102.0" type="line"/>
      <point x="-19.0" y="-102.0" type="line"/>
      <point x="-19.0" y="-102.0" type="line"/>
      <point x="-10.959999999999999" y="-40.36"/>
      <point x="-47.36" y="2.0"/>
      <point x="-109.0" y="2.0" type="curve"/>
      <point x="-109.0" y="2.0" type="line"/>
      <point x="-109.0" y="2.0" type="line"/>
      <point x="-109.0" y="-2.0" type="line"/>
      <point x="-109.0" y="-2.0" type="line"/>
      <point x="-50.04" y="-2.0"/>
      <point x="-14.959999999999999" y="-43.04"/>
      <point x="-23.0" y="-102.0" type="curve"/>
      <point x="-23.0" y="-102.0" type="line"/>
    </contour>
    <contour>
      <point x="77.0" y="-102.0" type="line"/>
      <point x="81.0" y="-102.0" type="line"/>
      <point x="81.0" y="-102.0" type="line"/>
      <point x="89.04" y="-43.04"/>
      <point x="136.04" y="-2.0"/>
      <point x="195.0" y="-2.0" type="curve"/>
      <point x="195.0" y="-2.0" type="line"/>
      <point x="195.0" y="2.0" type="line"/>
      <point x="195.0" y="2.0" type="line"/>
      <point x="195.0" y="2.0" type="line"/>
      <point x="133.36" y="2.0"/>
      <point x="85.04" y="-40.36"/>
      <point x="77.0" y="-102.0" type="curve"/>
      <point x="77.0" y="-102.0" type="line"/>
    </contour>
    <contour>
      <point x="119.0" y="202.0" type="line"/>
      <point x="119.0" y="202.0" type="line"/>
      <point x="119.0" y="202.0" type="line"/>
      <point x="110.96" y="140.36"/>
      <point x="147.36" y="98.0"/>
      <point x="209.0" y="98.0" type="curve"/>
      <point x="209.0" y="98.0" type="line"/>
      <point x="209.0" y="98.0" type="line"/>
      <point x="209.0" y="102.0" type="line"/>
      <point x="209.0" y="102.0" type="line"/>
      <point x="150.04" y="102.0"/>
      <point x="114.96" y="143.04"/>
      <point x="123.0" y="202.0" type="curve"/>
      <point x="123.0" y="202.0" type="line"/>
    </contour>
    <contour>
      <point x="23.0" y="202.0" type="line"/>
      <point x="19.0" y="202.0" type="line"/>
      <point x="19.0" y="202.0" type="line"/>
      <point x="10.959999999999999" y="143.04"/>
      <point x="-36.04" y="102.0"/>
      <point x="-95.0" y="102.0" type="curve"/>
      <point x="-95.0" y="102.0" type="line"/>
      <point x="-95.0" y="98.0" type="line"/>
      <point x="-95.0" y="98.0" type="line"/>
      <point x="-95.0" y="98.0" type="line"/>
      <point x="-33.36" y="98.0"/>
      <point x="14.959999999999999" y="140.36"/>
      <point x="23.0" y="202.0" type="curve"/>
      <point x="23.0" y="202.0" type="line"/>
    </contour>
  </outline>
</glyph>
<glyph name="Pix12@10_i" format="2">
  <advance width="102"/>
  <outline>
    <contour>
      <point x="45" y="-2" type="line"/>
      <point x="45" y="2" type="line"/>
      <point x="45" y="2" type="line"/>
      <point x="49" y="30"/>
      <point x="30" y="50"/>
      <point x="2" y="50" type="curve"/>
      <point x="2" y="50" type="line"/>
      <point x="-2" y="50" type="line"/>
      <point x="-9" y="-2" type="line"/>
      <point x="-9" y="-2" type="line"/>
      <point x="-9" y="-2"/>
      <point x="-9" y="-2"/>
      <point x="-9" y="-2" type="curve"/>
      <point x="-9" y="-2" type="line"/>
    </contour>
    <contour>
      <point x="45" y="-2" type="line"/>
      <point x="95" y="-2" type="line"/>
      <point x="95" y="-2" type="line"/>
      <point x="95" y="-2"/>
      <point x="95" y="-2"/>
      <point x="95" y="-2" type="curve"/>
      <point x="95" y="-2" type="line"/>
      <point x="102" y="50" type="line"/>
      <point x="98" y="50" type="line"/>
      <point x="98" y="50" type="line"/>
      <point x="70" y="50"/>
      <point x="49" y="30"/>
      <point x="45" y="2" type="curve"/>
      <point x="45" y="2" type="line"/>
    </contour>
    <contour>
      <point x="55" y="102" type="line"/>
      <point x="55" y="98" type="line"/>
      <point x="55" y="98" type="line"/>
      <point x="51" y="70"/>
      <point x="70" y="50"/>
      <point x="98" y="50" type="curve"/>
      <point x="98" y="50" type="line"/>
      <point x="102" y="50" type="line"/>
      <point x="109" y="102" type="line"/>
      <point x="109" y="102" type="line"/>
      <point x="109" y="102"/>
      <point x="109" y="102"/>
      <point x="109" y="102" type="curve"/>
      <point x="109" y="102" type="line"/>
    </contour>
    <contour>
      <point x="55" y="102" type="line"/>
      <point x="5" y="102" type="line"/>
      <point x="5" y="102" type="line"/>
      <point x="5" y="102"/>
      <point x="5" y="102"/>
      <point x="5" y="102" type="curve"/>
      <point x="5" y="102" type="line"/>
      <point x="-2" y="50" type="line"/>
      <point x="2" y="50" type="line"/>
      <point x="2" y="50" type="line"/>
      <point x="30" y="50"/>
      <point x="51" y="70"/>
      <point x="55" y="98" type="curve"/>
      <point x="55" y="98" type="line"/>
    </contour>
  </outline>
</glyph>
<glyph name="Pixel@MODEL" format="2">
  <advance width="100"/>
  <outline>
    <contour>
      <point x="52" y="-2" type="line"/>
      <point x="52" y="52" type="line"/>
      <point x="52" y="52" type="line"/>
      <point x="52" y="52"/>
      <point x="52" y="52"/>
      <point x="52" y="52" type="curve"/>
      <point x="52" y="52" type="line"/>
      <point x="-2" y="52" type="line"/>
      <point x="-2" y="-2" type="line"/>
      <point x="-2" y="-2" type="line"/>
      <point x="-2" y="-2"/>
      <point x="-2" y="-2"/>
      <point x="-2" y="-2" type="curve"/>
      <point x="-2" y="-2" type="line"/>
    </contour>
    <contour>
      <point x="48" y="-2" type="line"/>
      <point x="102" y="-2" type="line"/>
      <point x="102" y="-2" type="line"/>
      <point x="102" y="-2"/>
      <point x="102" y="-2"/>
      <point x="102" y="-2" type="curve"/>
      <point x="102" y="-2" type="line"/>
      <point x="102" y="52" type="line"/>
      <point x="48" y="52" type="line"/>
      <point x="48" y="52" type="line"/>
      <point x="48" y="52"/>
      <point x="48" y="52"/>
      <point x="48" y="52" type="curve"/>
      <point x="48" y="52" type="line"/>
    </contour>
    <contour>
      <point x="52" y="102" type="line"/>
      <point x="-2" y="102" type="line"/>
      <point x="-2" y="102" type="line"/>
      <point x="-2" y="102"/>
      <point x="-2" y="102"/>
      <point x="-2" y="102" type="curve"/>
      <point x="-2" y="102" type="line"/>
      <point x="-2" y="48" type="line"/>
      <point x="52" y="48" type="line"/>
      <point x="52" y="48" type="line"/>
      <point x="52" y="48"/>
      <point x="52" y="48"/>
      <point x="52" y="48" type="curve"/>
      <point x="52" y="48" type="line"/>
    </contour>
    <contour>
      <point x="48" y="102" type="line"/>
      <point x="48" y="48" type="line"/>
      <point x="48" y="48" type="line"/>
      <point x="48" y="48"/>
      <point x="48" y="48"/>
      <point x="48" y="48" type="curve"/>
      <point x="48" y="48" type="line"/>
      <point x="102" y="48" type="line"/>
      <point x="102" y="102" type="line"/>
      <point x="102" y="102" type="line"/>
      <point x="102" y="102"/>
      <point x="102" y="102"/>
      <point x="102" y="102" type="curve"/>
      <point x="102" y="102" type="line"/>
    </contour>
  </outline>
</glyph>
